<svg width="157" height="50" viewBox="0 0 157 50" fill="none" xmlns="http://www.w3.org/2000/svg">
  <circle cx="25" cy="25" r="25" fill="oklch(0.54 0.18 162)"/>
  <path d="M22.978394366197186 26.658591549295775Q22.978394366197186 24.670985915492956 23.71191549295775 23.16845070422535Q24.44543661971831 21.665915492957744 25.79416901408451 20.84957746478873Q27.142901408450705 20.033239436619716 28.91754929577465 20.033239436619716Q31.165436619718314 20.033239436619716 32.69163380281691 21.346478873239434Q34.2178309859155 22.659718309859155 34.572760563380285 24.907605633802817L31.638676056338028 25.07323943661972Q31.378394366197185 23.890140845070423 30.6803661971831 23.23943661971831Q29.982338028169018 22.588732394366197 28.91754929577465 22.588732394366197Q27.52149295774648 22.588732394366197 26.728816901408454 23.67718309859155Q25.936140845070426 24.7656338028169 25.936140845070426 26.658591549295775Q25.936140845070426 28.575211267605635 26.716985915492963 29.651830985915495Q27.497830985915495 30.728450704225352 28.91754929577465 30.728450704225352Q29.982338028169018 30.728450704225352 30.704028169014087 30.054084507042255Q31.425718309859157 29.379718309859154 31.686 28.1256338028169L34.62008450704226 28.291267605633802Q34.24149295774648 30.56281690140845 32.7034647887324 31.923380281690143Q31.165436619718314 33.28394366197183 28.91754929577465 33.28394366197183Q27.142901408450705 33.28394366197183 25.79416901408451 32.46760563380282Q24.44543661971831 31.6512676056338 23.71191549295775 30.1487323943662Q22.978394366197186 28.646197183098593 22.978394366197186 26.658591549295775Z M36.98628169014085 26.658591549295775Q36.98628169014085 24.670985915492956 37.7316338028169 23.16845070422535Q38.47698591549296 21.665915492957744 39.81388732394366 20.84957746478873Q41.15078873239437 20.033239436619716 42.90177464788733 20.033239436619716Q44.65276056338028 20.033239436619716 45.98966197183099 20.84957746478873Q47.3265633802817 21.665915492957744 48.07191549295776 23.16845070422535Q48.81726760563381 24.670985915492956 48.81726760563381 26.658591549295775Q48.81726760563381 28.646197183098593 48.07191549295776 30.1487323943662Q47.3265633802817 31.6512676056338 45.98966197183099 32.46760563380282Q44.65276056338028 33.28394366197183 42.90177464788733 33.28394366197183Q41.15078873239437 33.28394366197183 39.81388732394366 32.46760563380282Q38.47698591549296 31.6512676056338 37.7316338028169 30.1487323943662Q36.98628169014085 28.646197183098593 36.98628169014085 26.658591549295775ZM45.85952112676057 26.658591549295775Q45.85952112676057 24.741971830985918 45.07867605633803 23.665352112676057Q44.297830985915496 22.588732394366197 42.90177464788733 22.588732394366197Q41.50571830985916 22.588732394366197 40.724873239436626 23.665352112676057Q39.94402816901409 24.741971830985918 39.94402816901409 26.658591549295775Q39.94402816901409 28.575211267605635 40.724873239436626 29.651830985915495Q41.50571830985916 30.728450704225352 42.90177464788733 30.728450704225352Q44.297830985915496 30.728450704225352 45.07867605633803 29.651830985915495Q45.85952112676057 28.575211267605635 45.85952112676057 26.658591549295775Z" fill="white"/>
  <path d="M51.15980281690142 26.658591549295775Q51.15980281690142 24.647323943661974 51.763183098591554 23.15661971830986Q52.3665633802817 21.665915492957744 53.50233802816902 20.84957746478873Q54.638112676056345 20.033239436619716 56.152478873239446 20.033239436619716Q57.33557746478874 20.033239436619716 58.29388732394367 20.589295774647887Q59.2521971830986 21.145352112676058 59.77276056338029 22.11549295774648V16.2H62.58853521126761V33.0H59.914732394366204L59.84374647887324 31.130704225352112Q59.32318309859156 32.17183098591549 58.364873239436626 32.72788732394366Q57.406563380281696 33.28394366197183 56.152478873239446 33.28394366197183Q54.638112676056345 33.28394366197183 53.50233802816902 32.46760563380282Q52.3665633802817 31.6512676056338 51.763183098591554 30.160563380281687Q51.15980281690142 28.669859154929576 51.15980281690142 26.658591549295775ZM59.77276056338029 26.658591549295775Q59.77276056338029 24.718309859154928 59.003746478873246 23.653521126760563Q58.234732394366205 22.588732394366197 56.86233802816902 22.588732394366197Q55.5609295774648 22.588732394366197 54.83923943661972 23.653521126760563Q54.11754929577465 24.718309859154928 54.11754929577465 26.658591549295775Q54.11754929577465 28.59887323943662 54.83923943661972 29.663661971830987Q55.5609295774648 30.728450704225352 56.86233802816902 30.728450704225352Q58.211070422535215 30.728450704225352 58.99191549295775 29.651830985915495Q59.77276056338029 28.575211267605635 59.77276056338029 26.658591549295775Z M65.4516338028169 26.658591549295775Q65.4516338028169 24.647323943661974 66.18515492957746 23.144788732394368Q66.91867605633803 21.64225352112676 68.25557746478873 20.83774647887324Q69.59247887323944 20.033239436619716 71.34346478873239 20.033239436619716Q72.99980281690141 20.033239436619716 74.32487323943661 20.814084507042253Q75.64994366197183 21.59492957746479 76.43078873239438 23.097464788732395Q77.2116338028169 24.6 77.2116338028169 26.729577464788733V27.368450704225353H68.43304225352112Q68.55135211267606 29.024788732394367 69.3321971830986 29.87661971830986Q70.11304225352113 30.728450704225352 71.39078873239437 30.728450704225352Q72.36092957746479 30.728450704225352 73.0234647887324 30.255211267605635Q73.686 29.781971830985917 73.99360563380282 28.906478873239436L76.95135211267606 29.166760563380283Q76.33614084507042 31.059718309859154 74.89276056338028 32.17183098591549Q73.44938028169014 33.28394366197183 71.39078873239437 33.28394366197183Q69.61614084507042 33.28394366197183 68.26740845070422 32.46760563380282Q66.91867605633803 31.6512676056338 66.18515492957746 30.1487323943662Q65.4516338028169 28.646197183098593 65.4516338028169 26.658591549295775ZM71.34346478873239 22.588732394366197Q70.20769014084507 22.588732394366197 69.46233802816901 23.310422535211266Q68.71698591549296 24.032112676056336 68.4803661971831 25.40450704225352H74.13557746478874Q73.94628169014085 24.032112676056336 73.20092957746479 23.310422535211266Q72.45557746478873 22.588732394366197 71.34346478873239 22.588732394366197Z M80.14571830985916 20.31718309859155H82.81952112676056L82.89050704225353 22.28112676056338Q83.45839436619718 21.19267605633803 84.38121126760564 20.612957746478873Q85.30402816901409 20.033239436619716 86.55811267605634 20.033239436619716Q88.1434647887324 20.033239436619716 89.27923943661972 20.896901408450702Q90.41501408450705 21.76056338028169 90.9947323943662 23.263098591549294Q91.57445070422536 24.7656338028169 91.57445070422536 26.658591549295775Q91.57445070422536 28.55154929577465 90.9947323943662 30.054084507042255Q90.41501408450705 31.55661971830986 89.27923943661972 32.42028169014085Q88.1434647887324 33.28394366197183 86.55811267605634 33.28394366197183Q85.37501408450704 33.28394366197183 84.4521971830986 32.75154929577465Q83.52938028169015 32.21915492957746 82.96149295774649 31.249014084507042V36.54929577464789H80.14571830985916ZM88.61670422535212 26.658591549295775Q88.61670422535212 24.718309859154928 87.88318309859156 23.653521126760563Q87.149661971831 22.588732394366197 85.82459154929577 22.588732394366197Q84.47585915492958 22.588732394366197 83.71867605633804 23.64169014084507Q82.96149295774649 24.694647887323946 82.96149295774649 26.658591549295775Q82.96149295774649 28.622535211267603 83.73050704225352 29.675492957746478Q84.49952112676057 30.728450704225352 85.82459154929577 30.728450704225352Q87.149661971831 30.728450704225352 87.88318309859156 29.663661971830987Q88.61670422535212 28.59887323943662 88.61670422535212 26.658591549295775Z M94.57952112676057 28.622535211267603V20.31718309859155H97.39529577464789V27.84169014084507Q97.39529577464789 29.427042253521126 97.8921971830986 30.1487323943662Q98.3890985915493 30.87042253521127 99.3829014084507 30.87042253521127Q100.566 30.87042253521127 101.20487323943662 30.065915492957746Q101.84374647887324 29.261408450704224 101.84374647887324 27.699718309859154V20.31718309859155H104.65952112676057V33.0H102.03304225352113L101.98571830985917 30.988732394366195Q101.46515492957747 32.10084507042254 100.51867605633802 32.692394366197185Q99.5721971830986 33.28394366197183 98.27078873239438 33.28394366197183Q96.56712676056338 33.28394366197183 95.57332394366198 32.07718309859155Q94.57952112676057 30.87042253521127 94.57952112676057 28.622535211267603Z M111.75811267605634 18.613521126760563H108.87135211267606V16.2H111.94740845070423Q116.0409295774648 16.2 116.0409295774648 20.293521126760563V30.586478873239436H120.32374647887325V33.0H108.39811267605634V30.586478873239436H113.22515492957747V20.08056338028169Q113.22515492957747 19.370704225352114 112.84656338028171 18.992112676056337Q112.46797183098593 18.613521126760563 111.75811267605634 18.613521126760563Z M122.73726760563382 29.024788732394367 125.57670422535213 28.88281690140845Q125.766 29.781971830985917 126.44036619718311 30.27887323943662Q127.11473239436621 30.775774647887324 128.2978309859155 30.775774647887324Q130.56938028169014 30.775774647887324 130.56938028169014 29.569014084507042Q130.56938028169014 29.143098591549297 130.35642253521127 28.87098591549296Q130.14346478873242 28.59887323943662 129.54008450704225 28.374084507042255Q128.93670422535212 28.14929577464789 127.77726760563381 27.91267605633803Q125.17445070422536 27.39211267605634 124.09783098591551 26.48112676056338Q123.02121126760565 25.570140845070423 123.02121126760565 24.008450704225353Q123.02121126760565 22.896338028169012 123.6127605633803 21.985352112676054Q124.20430985915495 21.074366197183096 125.32825352112678 20.553802816901406Q126.4521971830986 20.033239436619716 127.99022535211269 20.033239436619716Q130.38008450704226 20.033239436619716 131.74064788732395 21.263661971830984Q133.10121126760563 22.494084507042253 133.3378309859155 24.292394366197183L130.4983943661972 24.4343661971831Q130.3327605633803 23.535211267605632 129.69388732394367 23.03830985915493Q129.05501408450706 22.541408450704225 127.99022535211269 22.541408450704225Q126.99642253521128 22.541408450704225 126.42853521126762 22.95549295774648Q125.86064788732395 23.369577464788733 125.86064788732395 23.984788732394364Q125.86064788732395 24.48169014084507 126.14459154929578 24.78929577464789Q126.42853521126762 25.096901408450705 127.07923943661973 25.32169014084507Q127.72994366197184 25.546478873239437 128.93670422535212 25.80676056338028Q130.6403661971831 26.138028169014085 131.62233802816903 26.611267605633802Q132.60430985915494 27.08450704225352 133.01839436619719 27.782535211267607Q133.43247887323946 28.48056338028169 133.43247887323946 29.569014084507042Q133.43247887323946 31.272676056338028 132.0245915492958 32.27830985915493Q130.61670422535212 33.28394366197183 128.2978309859155 33.28394366197183Q126.66515492957748 33.28394366197183 125.4465633802817 32.72788732394366Q124.22797183098592 32.17183098591549 123.54177464788734 31.20169014084507Q122.85557746478874 30.23154929577465 122.73726760563382 29.024788732394367Z M136.43754929577466 26.658591549295775Q136.43754929577466 24.647323943661974 137.17107042253522 23.144788732394368Q137.9045915492958 21.64225352112676 139.2414929577465 20.83774647887324Q140.5783943661972 20.033239436619716 142.32938028169016 20.033239436619716Q143.98571830985918 20.033239436619716 145.31078873239437 20.814084507042253Q146.6358591549296 21.59492957746479 147.41670422535213 23.097464788732395Q148.19754929577465 24.6 148.19754929577465 26.729577464788733V27.368450704225353H139.4189577464789Q139.53726760563382 29.024788732394367 140.31811267605633 29.87661971830986Q141.09895774647887 30.728450704225352 142.3767042253521 30.728450704225352Q143.34684507042255 30.728450704225352 144.00938028169014 30.255211267605635Q144.67191549295777 29.781971830985917 144.97952112676057 28.906478873239436L147.93726760563382 29.166760563380283Q147.32205633802818 31.059718309859154 145.87867605633804 32.17183098591549Q144.4352957746479 33.28394366197183 142.3767042253521 33.28394366197183Q140.60205633802818 33.28394366197183 139.253323943662 32.46760563380282Q137.9045915492958 31.6512676056338 137.17107042253522 30.1487323943662Q136.43754929577466 28.646197183098593 136.43754929577466 26.658591549295775ZM142.32938028169016 22.588732394366197Q141.19360563380283 22.588732394366197 140.4482535211268 23.310422535211266Q139.7029014084507 24.032112676056336 139.46628169014085 25.40450704225352H145.12149295774648Q144.9321971830986 24.032112676056336 144.18684507042255 23.310422535211266Q143.4414929577465 22.588732394366197 142.32938028169016 22.588732394366197Z" fill="#ffffff"/>
</svg>