<svg width="50" height="50" viewBox="0 0 50 50" fill="none" xmlns="http://www.w3.org/2000/svg">
  <circle cx="25" cy="25" r="25" fill="oklch(0.54 0.18 162)"/>
  <path d="M22.978394366197186 26.658591549295775Q22.978394366197186 24.670985915492956 23.71191549295775 23.16845070422535Q24.44543661971831 21.665915492957744 25.79416901408451 20.84957746478873Q27.142901408450705 20.033239436619716 28.91754929577465 20.033239436619716Q31.165436619718314 20.033239436619716 32.69163380281691 21.346478873239434Q34.2178309859155 22.659718309859155 34.572760563380285 24.907605633802817L31.638676056338028 25.07323943661972Q31.378394366197185 23.890140845070423 30.6803661971831 23.23943661971831Q29.982338028169018 22.588732394366197 28.91754929577465 22.588732394366197Q27.52149295774648 22.588732394366197 26.728816901408454 23.67718309859155Q25.936140845070426 24.7656338028169 25.936140845070426 26.658591549295775Q25.936140845070426 28.575211267605635 26.716985915492963 29.651830985915495Q27.497830985915495 30.728450704225352 28.91754929577465 30.728450704225352Q29.982338028169018 30.728450704225352 30.704028169014087 30.054084507042255Q31.425718309859157 29.379718309859154 31.686 28.1256338028169L34.62008450704226 28.291267605633802Q34.24149295774648 30.56281690140845 32.7034647887324 31.923380281690143Q31.165436619718314 33.28394366197183 28.91754929577465 33.28394366197183Q27.142901408450705 33.28394366197183 25.79416901408451 32.46760563380282Q24.44543661971831 31.6512676056338 23.71191549295775 30.1487323943662Q22.978394366197186 28.646197183098593 22.978394366197186 26.658591549295775Z M36.98628169014085 26.658591549295775Q36.98628169014085 24.670985915492956 37.7316338028169 23.16845070422535Q38.47698591549296 21.665915492957744 39.81388732394366 20.84957746478873Q41.15078873239437 20.033239436619716 42.90177464788733 20.033239436619716Q44.65276056338028 20.033239436619716 45.98966197183099 20.84957746478873Q47.3265633802817 21.665915492957744 48.07191549295776 23.16845070422535Q48.81726760563381 24.670985915492956 48.81726760563381 26.658591549295775Q48.81726760563381 28.646197183098593 48.07191549295776 30.1487323943662Q47.3265633802817 31.6512676056338 45.98966197183099 32.46760563380282Q44.65276056338028 33.28394366197183 42.90177464788733 33.28394366197183Q41.15078873239437 33.28394366197183 39.81388732394366 32.46760563380282Q38.47698591549296 31.6512676056338 37.7316338028169 30.1487323943662Q36.98628169014085 28.646197183098593 36.98628169014085 26.658591549295775ZM45.85952112676057 26.658591549295775Q45.85952112676057 24.741971830985918 45.07867605633803 23.665352112676057Q44.297830985915496 22.588732394366197 42.90177464788733 22.588732394366197Q41.50571830985916 22.588732394366197 40.724873239436626 23.665352112676057Q39.94402816901409 24.741971830985918 39.94402816901409 26.658591549295775Q39.94402816901409 28.575211267605635 40.724873239436626 29.651830985915495Q41.50571830985916 30.728450704225352 42.90177464788733 30.728450704225352Q44.297830985915496 30.728450704225352 45.07867605633803 29.651830985915495Q45.85952112676057 28.575211267605635 45.85952112676057 26.658591549295775Z" fill="white"/>
</svg>